<svg xmlns="http://www.w3.org/2000/svg" xmlns:xlink="http://www.w3.org/1999/xlink" width="268.731" height="268.736" viewBox="0 0 268.731 268.736">
  <defs>
    <style>
      .cls-1 {
        fill: url(#linear-gradient);
      }
    </style>
    <linearGradient id="linear-gradient" x1="0.247" x2="0.64" y2="1.09" gradientUnits="objectBoundingBox">
      <stop offset="0" stop-color="#476a47"/>
      <stop offset="1" stop-color="#01190c"/>
    </linearGradient>
  </defs>
  <path id="Path_87" data-name="Path 87" class="cls-1" d="M254.9,164.007l-34.252-34.249a47.711,47.711,0,0,0-67.839.659l-14.491-14.491a46.311,46.311,0,0,0,14.491-34.415q0-19.76-13.668-33.427L105.22,14Q91.553,0,71.629,0,51.869,0,38.2,13.672L14,37.712A44.93,44.93,0,0,0,0,71.139a45.739,45.739,0,0,0,13.832,33.593l34.25,34.249a45.737,45.737,0,0,0,33.593,13.832,46.123,46.123,0,0,0,34.249-14.491l14.491,14.491a46.318,46.318,0,0,0-14.491,34.416q0,19.762,13.667,33.427l33.924,34.082q13.67,14,33.589,14,19.763,0,33.427-13.668l24.208-24.04a44.938,44.938,0,0,0,14-33.427A45.753,45.753,0,0,0,254.9,164.007ZM115.925,93.537q-.494-.494-3.045-3.128t-3.539-3.541a39.825,39.825,0,0,0-3.129-2.472,13.27,13.27,0,0,0-4.2-2.14,16.776,16.776,0,0,0-4.53-.576A15.739,15.739,0,0,0,81.677,97.486a16.772,16.772,0,0,0,.576,4.528,13.219,13.219,0,0,0,2.14,4.2,39.614,39.614,0,0,0,2.47,3.129q.9.987,3.539,3.541t3.128,3.046a15.918,15.918,0,0,1-11.855,5.1,15.182,15.182,0,0,1-11.2-4.444L36.225,82.338a15.251,15.251,0,0,1-4.609-11.2,15.05,15.05,0,0,1,4.609-11.031L60.432,36.066a15.9,15.9,0,0,1,11.2-4.444,15.246,15.246,0,0,1,11.2,4.61l33.92,34.084a15.243,15.243,0,0,1,4.609,11.2A15.993,15.993,0,0,1,115.925,93.537ZM232.513,208.629l-24.208,24.042a15.871,15.871,0,0,1-11.2,4.281,15.167,15.167,0,0,1-11.195-4.445l-33.92-34.086a15.239,15.239,0,0,1-4.608-11.195,15.971,15.971,0,0,1,5.434-12.02c.332.327,1.346,1.373,3.048,3.126s2.881,2.937,3.541,3.541a39.092,39.092,0,0,0,3.126,2.473,13.2,13.2,0,0,0,4.2,2.141,16.751,16.751,0,0,0,4.528.576,15.742,15.742,0,0,0,15.81-15.805,16.88,16.88,0,0,0-.577-4.528,13.171,13.171,0,0,0-2.145-4.2,39.752,39.752,0,0,0-2.469-3.131q-.906-.983-3.541-3.541t-3.131-3.043a15.687,15.687,0,0,1,11.854-5.27,15.228,15.228,0,0,1,11.195,4.61L232.507,186.4a15.248,15.248,0,0,1,4.611,11.2A15.044,15.044,0,0,1,232.513,208.629Z" transform="translate(-0.003 268.736) rotate(-90)"/>
</svg>
