<svg xmlns="http://www.w3.org/2000/svg" xmlns:xlink="http://www.w3.org/1999/xlink" width="221.999" height="221.999" viewBox="0 0 221.999 221.999">
  <defs>
    <style>
      .cls-1 {
        fill: url(#linear-gradient);
      }
    </style>
    <linearGradient id="linear-gradient" x1="0.126" y1="0.118" x2="0.956" y2="0.923" gradientUnits="objectBoundingBox">
      <stop offset="0" stop-color="#ecc413"/>
      <stop offset="1" stop-color="#40a140"/>
    </linearGradient>
  </defs>
  <path id="Subtraction_8" data-name="Subtraction 8" class="cls-1" d="M111.5,222.5a111.82,111.82,0,0,1-22.37-2.255,110.392,110.392,0,0,1-39.691-16.7A111.324,111.324,0,0,1,9.223,154.706,110.442,110.442,0,0,1,2.756,133.87a112.083,112.083,0,0,1,0-44.741,110.392,110.392,0,0,1,16.7-39.691A111.324,111.324,0,0,1,68.294,9.223,110.441,110.441,0,0,1,89.13,2.756a112.083,112.083,0,0,1,44.741,0,110.392,110.392,0,0,1,39.691,16.7,111.324,111.324,0,0,1,40.216,48.837,110.442,110.442,0,0,1,6.468,20.836,112.083,112.083,0,0,1,0,44.741,110.392,110.392,0,0,1-16.7,39.691,111.324,111.324,0,0,1-48.837,40.216,110.442,110.442,0,0,1-20.836,6.468A111.821,111.821,0,0,1,111.5,222.5Zm45.041-107.506a28.453,28.453,0,1,0,11.109,2.243A28.362,28.362,0,0,0,156.541,114.994ZM63.349,50.35V168.271h67.484a35.666,35.666,0,0,1,25.708-60.412c1.127,0,2.274.054,3.408.161V86.215h-36.1V50.35Zm67.633,2.091V79.078h26.639Zm28.966,101.8h-7.135v-7.254h-6.976v-7.136h6.976v-7.254h7.135v7.254h7.295v7.136h-7.295v7.253Zm-50.264-18.156H81.143v-7.135h28.542v7.134Zm7.135-14.27H81.143v-7.135H116.82v7.134Zm18.156-14.271H81.143v-7.135h53.833v7.134Zm-25.291-14.27H81.143V86.135h28.542V93.27Z" transform="translate(-0.5 -0.5)"/>
</svg>
