<svg xmlns="http://www.w3.org/2000/svg" width="539.855" height="245.911" viewBox="0 0 539.855 245.911">
  <defs>
    <style>
      .cls-1 {
        fill: #fff;
        stroke: rgba(0,0,0,0);
      }
    </style>
  </defs>
  <path id="Union_4" data-name="Union 4" class="cls-1" d="M105.622,239.209a7.153,7.153,0,0,1,1.538-3.957,80.352,80.352,0,0,0,8.042-14.368,28.824,28.824,0,0,0,2.4-10.53q0-5.971-3.352-9.483a37.174,37.174,0,0,0-7.094-5.893c-2.053-1.177-3.087-3.342-3.087-6.475a18.326,18.326,0,0,1,2.1-7.861,23.453,23.453,0,0,1,6.385-7.825,28.6,28.6,0,0,1,12.388,10.478c3.439,4.9,5.133,10.811,5.133,17.79,0,5.689-1.531,12.092-4.633,19.3-3.149,7.316-8.671,15.365-16.758,24.32C106.65,242.8,105.622,240.967,105.622,239.209Zm60.041-17.9c0-3.272,1.371-6.881,4.075-10.771,9.837-14.68,16.706-27.192,20.828-37.78,4.063-10.435,6.069-19.706,6.069-27.923,0-10.8-2.794-19.776-8.483-27.041a124.959,124.959,0,0,0-18.413-19.258c-5.445-4.221-8.211-10.767-8.211-19.548,0-6.592,1.881-13.571,5.6-20.866A46.835,46.835,0,0,1,183.8,40.107c12.137,8.138,22.388,19.828,30.945,34.976,8.277,14.631,12.307,30.949,12.307,49.334,0,14.985-3.641,31.4-11.1,49.653-7.679,18.811-21.417,39.487-42.206,62.915C168.39,231.459,165.663,226.216,165.663,221.31Zm-144.6-63.8C5.2,129.754-3,104.23-3,81.944-3,54.6,6.062,33.645,23.52,19.626,40.094,6.291,58.226-.076,77.593,0c10.839,11.45,18.59,22.374,23.487,32.915,4.8,10.365,7.182,19.106,7.182,26.351,0,9.649-3.508,15.615-10.649,17.912A109.369,109.369,0,0,0,70.9,91.9c-9.166,6.709-13.843,17.046-13.843,30.839,0,10.5,3.369,22.724,10.009,36.439,6.493,13.413,16.8,28.632,30.55,45.248q5.38,6.257,5.373,11.736c0,5.481-3.576,11.8-10.846,19.12C60.573,210.309,36.179,184,21.06,157.514Zm108.156,16.376c-6.061-12.573-9.139-24.012-9.139-34.112,0-12.392,3.4-22.344,10.093-29.73,6.529-7.221,13.879-11.431,21.976-12.74a50.708,50.708,0,0,1,10.184,14.558c2.134,4.853,3.2,9.063,3.2,12.662,0,4.8-1.567,7.907-4.726,9.337a51.412,51.412,0,0,0-11.484,8.141c-3.822,3.5-5.751,8.559-5.751,15.123,0,5,1.388,10.774,4.145,17.281,2.726,6.434,7.115,13.837,13.09,22.1a10.04,10.04,0,0,1,2.374,5.876c0,2.712-1.582,5.754-4.769,9.172C145.015,198.845,135.14,186.188,129.216,173.891ZM287.886,180H259.519V134.18h-8.49V180H223.364c.921-1.976,1.794-3.971,2.594-5.93a163.962,163.962,0,0,0,8.344-26.052,107.8,107.8,0,0,0-.3-49.676,92.717,92.717,0,0,0-9.257-23.259c-.682-1.208-1.385-2.409-2.088-3.572v-.6h28.369v39.014h8.49V70.907h28.368V180h0Zm202.352,0V70.907h28.369v87.26h17.249V180H490.237Zm-76.277,0V70.907h21.226c13.636,0,22.987.634,27.795,1.886s8.514,3.338,11.018,6.2a19.722,19.722,0,0,1,4.717,9.6c.625,3.513.943,10.507.943,20.787v38.207c0,9.746-.465,16.355-1.382,19.642a14.837,14.837,0,0,1-4.818,7.749,20.136,20.136,0,0,1-8.491,3.909A77.18,77.18,0,0,1,449.741,180Zm28.368-18.665h.006c4.064,0,6.6-.827,7.54-2.459s1.416-6.133,1.416-13.375V103.117a57.135,57.135,0,0,0-.473-9.5,4.527,4.527,0,0,0-2.156-3.066c-1.119-.648-3.25-.977-6.334-.977ZM356.618,180V70.907h47.3V92.74H384.986v20.687h17.721V134.18H384.986v23.988h20.821V180H356.618Zm-57.343,0V70.907h47.3V92.74H327.643v20.687h17.721V134.18H327.643v23.988h20.821V180H299.274Z" transform="translate(3.5 0.5)"/>
</svg>
