<svg xmlns="http://www.w3.org/2000/svg" xmlns:xlink="http://www.w3.org/1999/xlink" width="224" height="304" viewBox="0 0 224 304">
  <defs>
    <style>
      .cls-1 {
        fill: url(#linear-gradient);
      }
    </style>
    <linearGradient id="linear-gradient" x1="0.5" x2="0.5" y2="1" gradientUnits="objectBoundingBox">
      <stop offset="0" stop-color="#ffc80f"/>
      <stop offset="1" stop-color="#07964f"/>
    </linearGradient>
  </defs>
  <path id="Intersection_1" data-name="Intersection 1" class="cls-1" d="M112,272V232h32v40Zm-56,0V232H88v40Zm94.537-48c-2.665-.04-4.9-.071-6.537,0H0V192H144s1.277.07,3.151,0h74.171c-2.021,6.152-6.292,13.214-15.838,20.661C194,221.617,176.846,223.638,163.1,224Zm13.038-40a11.275,11.275,0,0,0,1.581-2.888,19.316,19.316,0,0,0,1.772-8.337,19.636,19.636,0,0,0-2.8-10.463,25.454,25.454,0,0,0-6.891-7.52C154.5,152.831,144,152,144,152H107.292l-12.016.161L88,152v32H56V136H207.231a34.776,34.776,0,0,1,7.945,6.7q10.805,12.263,8.378,34.98c-.205,1.834-.3,3.958-.56,6.322ZM56,128V88H87.988l-.05,32.327L128,120s17.6-.772,19.83-2.462a15.888,15.888,0,0,0,5.028-6.294,20.283,20.283,0,0,0,1.674-8.338,19.242,19.242,0,0,0-2.331-9.562c-1.4-2.517.382-1.094-4.075-5.344h59.2c.837,17.861-6.18,32.326-23.327,40Zm72-48c-6.195-.112-40,0-40,0H0V48s51.9.11,56,0h88s10.066.463,20.129,0h6.36c5.838.349,9.416,1.786,14.317,4.228a40.888,40.888,0,0,1,15.372,12.748A37.061,37.061,0,0,1,206.449,80ZM112,40V-32h32V40ZM56,40V0H88V40Z" transform="translate(0 32)"/>
</svg>
