<svg xmlns="http://www.w3.org/2000/svg" xmlns:xlink="http://www.w3.org/1999/xlink" width="485.999" height="304" viewBox="0 0 485.999 304">
  <defs>
    <style>
      .cls-1 {
        fill: url(#linear-gradient);
      }
    </style>
    <linearGradient id="linear-gradient" x1="0.5" x2="0.5" y2="1" gradientUnits="objectBoundingBox">
      <stop offset="0" stop-color="#ffc80f"/>
      <stop offset="1" stop-color="#07964f"/>
    </linearGradient>
  </defs>
  <path id="Union_16" data-name="Union 16" class="cls-1" d="M112,304V264h32v40Zm-56,0V264H88v40Zm94.537-48c-2.665-.041-4.9-.07-6.537,0H0V224H144s1.277.07,3.151,0h74.171c-2.021,6.152-6.291,13.214-15.837,20.661C194,253.617,176.846,255.639,163.1,256Zm234.11-.682a37.267,37.267,0,0,1-4.932-1.464h-.049a23.4,23.4,0,0,1-4.59-2.393,25.426,25.426,0,0,1-4.053-3.32,25.022,25.022,0,0,1-3.369-4,27.242,27.242,0,0,1-4-9.374,30.647,30.647,0,0,1-.489-5.176,26.373,26.373,0,0,1,.537-5.176,22.07,22.07,0,0,1,1.514-4.883,25.068,25.068,0,0,1,2.442-4.493,25.585,25.585,0,0,1,3.369-4,32.662,32.662,0,0,1,4.053-3.222,31.726,31.726,0,0,1,4.541-2.344A26.749,26.749,0,0,1,384.6,204a30.878,30.878,0,0,1,5.225-.489,27.476,27.476,0,0,1,10.3,1.954,31.27,31.27,0,0,1,4.59,2.392,26.772,26.772,0,0,1,4.1,3.32,29.7,29.7,0,0,1,3.37,4,23.078,23.078,0,0,1,2.442,4.492,26.41,26.41,0,0,1,1.513,4.834,25.347,25.347,0,0,1,.489,5.079,29.791,29.791,0,0,1-.439,5.176,34.653,34.653,0,0,1-1.514,4.931,28.417,28.417,0,0,1-2.442,4.493,30.3,30.3,0,0,1-3.369,3.906,22.809,22.809,0,0,1-4.2,3.32,24.071,24.071,0,0,1-4.59,2.442h-.049a33.593,33.593,0,0,1-4.981,1.464,31.5,31.5,0,0,1-5.224.489A30.648,30.648,0,0,1,384.647,255.318Zm.733-37.646a13.29,13.29,0,0,0-3.809,2.783,12.769,12.769,0,0,0-2.637,4.151,14.348,14.348,0,0,0-.878,5.078,13.7,13.7,0,0,0,.878,5.029,12.962,12.962,0,0,0,6.446,6.934,10.462,10.462,0,0,0,4.54.928,10.67,10.67,0,0,0,4.541-.928,12.641,12.641,0,0,0,6.4-6.934,12.831,12.831,0,0,0,.928-5.029,13.007,13.007,0,0,0-3.515-9.229,12.463,12.463,0,0,0-3.809-2.783,11.571,11.571,0,0,0-4.541-.928A11.333,11.333,0,0,0,385.379,217.672Zm77.117-93.7,23.5-.147V253.854L462.5,254ZM425.418,157.72l23.5-.147v96.281l-23.5.146ZM315.9,254V180.661h19.092a57.037,57.037,0,0,1,11.622.878,24.055,24.055,0,0,1,3.662,1.221,15.477,15.477,0,0,1,1.635.854,15.241,15.241,0,0,1,1.636,1,24.036,24.036,0,0,1,3.32,3.174,21.727,21.727,0,0,1,4.492,13.769q0,1.319-.1,2.686-.879,9.814-7.715,14.747a16.889,16.889,0,0,1-5.592,2.686,34.426,34.426,0,0,1-6.274,1.025q-2.539.147-5.494.171t-5.688.024V254Zm15.332-44.384q2.782,0,6.592-.244a11.882,11.882,0,0,0,5.664-1.465q2.2-1.416,2.2-5.468a10.581,10.581,0,0,0-.635-3.956q-1.22-2.685-5.762-3.564a47.007,47.007,0,0,0-8.056-.537ZM273.939,254V218.111h-11.2V205.075h11.2V188.082h20.008v16.993h10.5v13.036h-10.5V254Zm-39.159,0V169.359h21.288V254Zm-71.205-38a11.265,11.265,0,0,0,1.58-2.888,19.316,19.316,0,0,0,1.772-8.337,19.636,19.636,0,0,0-2.8-10.463,25.454,25.454,0,0,0-6.891-7.52C154.5,184.831,144,184,144,184H107.292l-12.016.161L88,184v32H56V168H207.23a34.775,34.775,0,0,1,7.945,6.7q10.805,12.263,8.378,34.98c-.205,1.833-.3,3.958-.56,6.322ZM231,147.5A14.5,14.5,0,1,1,245.5,162,14.5,14.5,0,0,1,231,147.5ZM56,160V120H87.988l-.049,32.327L128,152s17.6-.772,19.83-2.462a15.888,15.888,0,0,0,5.028-6.294,20.283,20.283,0,0,0,1.674-8.339,19.242,19.242,0,0,0-2.331-9.562c-1.4-2.517.382-1.094-4.075-5.344h59.2c.837,17.86-6.18,32.325-23.327,40Zm72-48c-6.195-.113-40,0-40,0H0V80s51.9.11,56,0h88s10.066.464,20.129,0h6.359c5.838.348,9.416,1.786,14.317,4.228a40.888,40.888,0,0,1,15.372,12.748A37.069,37.069,0,0,1,206.449,112ZM112,72V0h32V72ZM56,72V32H88V72Z"/>
</svg>
