<svg xmlns="http://www.w3.org/2000/svg" xmlns:xlink="http://www.w3.org/1999/xlink" width="296.999" height="226.904" viewBox="0 0 296.999 226.904">
  <defs>
    <style>
      .cls-1 {
        fill: url(#linear-gradient);
      }
    </style>
    <linearGradient id="linear-gradient" x1="0.944" y1="1" x2="0" gradientUnits="objectBoundingBox">
      <stop offset="0" stop-color="#0b964d"/>
      <stop offset="1" stop-color="#e3c215"/>
    </linearGradient>
  </defs>
  <path id="Union_19" data-name="Union 19" class="cls-1" d="M283.994,226.634c-25.46-5.8-70.134-12.548-112.512-2.172,24.5-23.19,59.1-27.293,80.084-27.344a27.19,27.19,0,0,0,27.1-27.125V36.753h7.706A10.637,10.637,0,0,1,297,47.379v168.9A10.628,10.628,0,0,1,286.384,226.9,10.763,10.763,0,0,1,283.994,226.634Zm-280-2.057A10.565,10.565,0,0,1,0,216.276V47.379A10.639,10.639,0,0,1,10.626,36.753h7.706V169.994a27.19,27.19,0,0,0,27.1,27.124c20.984.05,55.581,4.152,80.083,27.342-42.376-10.376-87.051-3.632-112.511,2.171a10.755,10.755,0,0,1-2.393.271A10.59,10.59,0,0,1,3.994,224.577Zm41.48-43.958a10.664,10.664,0,0,1-10.642-10.625V10.629a10.582,10.582,0,0,1,3.128-7.543A10.475,10.475,0,0,1,45.407,0h.025c24.794.058,69.89,5.8,93.357,43.592a10.185,10.185,0,0,1,1.461,5.382v166.78C111.658,185.834,70.212,180.678,45.474,180.619ZM156.751,48.975a10.184,10.184,0,0,1,1.46-5.382C181.679,5.8,226.775.059,251.568,0h.026a10.478,10.478,0,0,1,7.445,3.085,10.582,10.582,0,0,1,3.128,7.543V169.994a10.665,10.665,0,0,1-10.641,10.624c-24.737.059-66.183,5.215-94.775,35.136Z"/>
</svg>
