<svg xmlns="http://www.w3.org/2000/svg" width="317.551" height="235.096" viewBox="0 0 317.551 235.096">
  <defs>
    <style>
      .cls-1 {
        fill: #d8d8d8;
        fill-rule: evenodd;
      }
    </style>
  </defs>
  <path id="svg_3" class="cls-1" d="M304.525,112.9v1.616l.292.323.292.323h0v.323h.292v-.323h.292V112.9l.292-.646a5.877,5.877,0,0,0,.292-2.586,10.411,10.411,0,0,1,.583-3.556q.583-1.616.875-1.616.583-.323,1.458-4.849,1.166-4.525,2.332-8.4a40.956,40.956,0,0,0,2.332-6.142,9.5,9.5,0,0,1,.875-2.586q.583,0,.875-1.293a9.155,9.155,0,0,0-1.458-3.879l-1.457-2.909-.292-.323-.292-.323v-.646h.292v-.323h.875v-.97h.292v-.323h.875l.292.323.292.323,1.749.646a7.851,7.851,0,0,1,2.915,2.909,6.7,6.7,0,0,1,1.166,3.232,8.682,8.682,0,0,1-.583,2.909,11.662,11.662,0,0,0-.583,3.232q0,.97-2.624,9.7t-3.207,10.99a20.937,20.937,0,0,0-.583,4.525,39.185,39.185,0,0,1-1.166,7.111q-1.166,5.5-2.041,8.4a9.589,9.589,0,0,0-.292,5.172q0,2.263,2.332,7.111a33.493,33.493,0,0,0,3.5,7.111q1.458,2.586,1.749,2.586h.292l.291.323.292.323h-.292l-.291.323a6.671,6.671,0,0,1-1.458.97,9.274,9.274,0,0,0-2.332,1.939,5.5,5.5,0,0,0-1.166,3.232v1.293l.291.323.292.323h0v.323h.292v.323h.292l.292.323.292.323h.292v.323h.292v.323h.292l.292.323.292.323h.583v-.323h.292l2.332-2.909a14.824,14.824,0,0,1,3.5-3.879,3.956,3.956,0,0,1,2.915-.323q2.04.323,5.83,3.556t7.871,7.111q4.373,4.2,4.664,5.172a2.36,2.36,0,0,0,.875,1.616,3.4,3.4,0,0,1,.875.646l.292.323h.583l.292.323.292.323h.875v-.323h.292v-.646l1.166-4.525q1.166-4.525,2.041-5.172a9.825,9.825,0,0,1,2.624-.323,3.355,3.355,0,0,1,2.624.97,7.744,7.744,0,0,1,1.458,2.586,9.453,9.453,0,0,1,.291,4.2q-.292,2.586-.583,4.525a38.445,38.445,0,0,0-.292,5.818q0,3.879-.875,5.172-.583,1.293-1.458,1.293a1.61,1.61,0,0,1-1.749.323q-1.166-.323-5.247-3.879a122.592,122.592,0,0,0-11.952-9.374q-8.162-5.818-8.745-5.5-.875.323-2.624,3.879a16.425,16.425,0,0,1-3.207,4.849,17.222,17.222,0,0,1-4.373,2.586,12.4,12.4,0,0,0-4.081,3.232l-.875,1.939a43.82,43.82,0,0,0-.292,7.111v13.576a12.49,12.49,0,0,0,1.166,5.172q.583,2.263,1.458,5.818t2.041,8.4q1.749,5.172,1.166,5.818a6.82,6.82,0,0,1-2.915,1.293q-2.624.97-1.749,4.849a16.133,16.133,0,0,0,1.749,4.2,6.132,6.132,0,0,0,2.332.97q1.749.646,2.041,1.616a6.1,6.1,0,0,1,.291,2.263,8.812,8.812,0,0,1-1.166,3.879q-1.166,2.263-.583,3.556a6.155,6.155,0,0,1,.292,3.232,13.763,13.763,0,0,1-1.458,4.2,12.808,12.808,0,0,0-1.166,2.586.811.811,0,0,1-.583.323h-.292l-1.458.323h-1.749v-.647l-.292-.646a3.123,3.123,0,0,1-.292-1.293v-5.5a24.373,24.373,0,0,0-.875-7.435,40.852,40.852,0,0,1-1.458-8.081,38.537,38.537,0,0,0-1.458-6.142q-.583-.323-1.749-2.909a55.629,55.629,0,0,1-1.458-6.142,65,65,0,0,0-1.749-7.111,23.323,23.323,0,0,1-1.166-6.465,46.136,46.136,0,0,1,.292-5.172,7.741,7.741,0,0,0-.292-3.879,8.832,8.832,0,0,1-.583-3.556,7.871,7.871,0,0,0-.583-3.232,15.671,15.671,0,0,1-.875-4.525q-.292-2.909-.292-6.788a63.393,63.393,0,0,0-1.458-7.111q-.875-3.232-1.749-6.788-.875-3.879-2.041-3.879-.875-.323-1.166-1.939,0-1.616-2.332-7.435t-3.5-9.374l-1.166-3.879-.292-.646V140.7h-.583v.323h-.292v.646h-.292v.323l-.875.646a1.623,1.623,0,0,1-1.166.647q-.292,0-1.458,1.616a54.332,54.332,0,0,0-4.373,6.142,37.161,37.161,0,0,1-7.579,8.4q-4.081,3.556-4.373,5.818a67.115,67.115,0,0,0-.292,7.111,27.061,27.061,0,0,1-1.166,8.4q-.583,3.879-1.166,6.465v6.465a19.574,19.574,0,0,0,.583,5.818,11.465,11.465,0,0,1,.583,3.879v5.818a16.563,16.563,0,0,0,.583,5.172,7.744,7.744,0,0,0,1.458,2.586,4.789,4.789,0,0,1,.875,3.232,8.3,8.3,0,0,1-1.458,4.525,3.619,3.619,0,0,0-.583,3.879q.583,1.939,1.458,5.172.583,3.232,1.166,5.818a29.544,29.544,0,0,1,.583,5.818q0,2.909-.875,3.879-.583,1.293-.875,1.293h-.291l-.583.323-.583.323h-1.166l-.292-.323-.292-.323h-.291q-.292,0-.875-.97-.292-.97-2.041-10.667a92.22,92.22,0,0,0-4.081-15.516,58.606,58.606,0,0,0-3.5-8.4l-1.458-1.939h-.291v-.323h-.292v-.323h-.292l-.292-.323-.291-.323h-.583l-.292.323-.292.323h0v.647h0v.323h.292v.323h.583l.583,1.293q.875.97.583,4.849t-.583,8.728q-.292,4.849.292,6.465.583,1.939,1.166,10.99.583,9.374-.292,10.344l-.875,1.293h0l-.292.323-.291.323h-2.915l-.875-1.939a22.68,22.68,0,0,1-1.458-5.172q0-3.556-.583-4.525-.583-1.293-.292-1.293t.583-5.172q.291-5.172-5.539-20.041-5.247-14.546-5.539-16.162t.875-1.939q.875-.323.875-.646.291-.323-.292-1.939,0-1.293-2.915-10.344-2.915-8.728-2.915-12.283a38.525,38.525,0,0,1-.583-4.525,7.87,7.87,0,0,1-.583-3.232,56.027,56.027,0,0,1,1.166-8.081q1.166-6.142.583-6.142a6.139,6.139,0,0,1-1.749-.97,5.866,5.866,0,0,1-1.749-2.586,18.635,18.635,0,0,1-.875-3.556,8.863,8.863,0,0,1,.875-4.525q.583-3.232.875-5.818t-.583-3.556q-.875-.97-.292-5.5.583-4.849-.583-7.111a29.7,29.7,0,0,0-2.332-5.172q-1.166-2.909-3.5-9.7a97.22,97.22,0,0,1-2.332-10.344V92.532h-.292v.323h-.583v.323h-.292V93.5h-.292l-.291.323-.292.323h-.292l-.583,1.939a19.2,19.2,0,0,1-1.749,2.586q-.583.323-2.332,3.879-1.749,3.879-2.332,13.576-.583,10.021,0,12.93a24.377,24.377,0,0,1,.583,4.2,8.681,8.681,0,0,1-.583,2.909,49.97,49.97,0,0,0,1.166,7.758q1.166,5.5,4.081,14.869,2.332,9.374,2.041,14.869-.292,5.172,1.749,18.1a193.4,193.4,0,0,1,2.332,23.92q.292,10.667.292,12.607a5.643,5.643,0,0,1-.875,3.232,2.01,2.01,0,0,0-.292,2.263v11.637q0,10.021-.875,11.96a3.992,3.992,0,0,1-1.749,2.263h-3.207q-2.041,0-2.624-.97a1.943,1.943,0,0,1-.875-1.616q-.583-.646-.292-6.465t-1.458-7.111a7.025,7.025,0,0,1-2.332-2.586q-.583-1.293,0-5.172a45.067,45.067,0,0,1,1.166-5.818,8.754,8.754,0,0,0,0-4.525q-.583-2.909-.875-5.172t-.583-7.111a69.207,69.207,0,0,0-2.624-12.93q-2.332-8.081-2.332-8.4v-.323l-.292-.323-.292-.646v-.97l-.292-.323-.292-.323v.97l-.583,2.586v18.1q.583,15.839,1.749,21.011a63.769,63.769,0,0,0,2.624,7.435q1.458,2.586,0,4.2a5.275,5.275,0,0,1-2.041,1.939q-1.166.323-2.041,3.556a15.5,15.5,0,0,1-3.5,5.818q-2.624,2.586-4.081,3.879a5.835,5.835,0,0,1-1.749,1.293h-.292v.323h-.292v.323H185.3v-.646l-.292-.323v-.646l-.292-.323-.291-.646v-1.293a2.877,2.877,0,0,1,1.166-2.263,4.789,4.789,0,0,0,.875-3.232q.292-1.939-1.458-7.435-1.166-5.5-1.749-6.142a7.142,7.142,0,0,1-1.166-2.263,32.318,32.318,0,0,1-.875-6.465,64.861,64.861,0,0,1,.583-11.637,29.632,29.632,0,0,0-1.458-13.576q-1.749-6.788-2.915-14.223-.583-7.758-.292-22.627.292-15.193-.583-20.041-.875-4.525-1.458-10.99t-.583-7.111q-.583-.97-1.166-5.5a51.807,51.807,0,0,1-1.458-7.435,9.26,9.26,0,0,0-1.458-4.525q-1.166-1.939-8.454-8.4l-7.288-6.465H154.4l-.292-.323-.291-.323h-.583v-.323h-.292v-.323h0l-.292.646-.292.97v19.718a93.931,93.931,0,0,0,1.166,10.99q1.166,8.081,2.332,12.93a61.14,61.14,0,0,1,1.458,7.758,13.889,13.889,0,0,0,1.458,4.849,19.594,19.594,0,0,1,1.749,5.5q1.166,3.556,1.749,5.818a14.536,14.536,0,0,1,.583,4.2,58.27,58.27,0,0,0,.583,6.788,58.169,58.169,0,0,1,1.458,8.081q.292,3.232,1.166,4.2.874.646,1.458,4.525.583,3.556,1.166,10.99a100.5,100.5,0,0,0,2.624,16.162q2.041,8.4,1.749,9.7a17.759,17.759,0,0,0-.292,1.939v.323l-.291.323-.291.323h0v.323h-2.332q-.875,0-2.915-1.939a13.536,13.536,0,0,1-2.332-6.465q0-4.525-.583-5.172a11.657,11.657,0,0,0-1.458-2.586,7.883,7.883,0,0,1-1.458-4.2q0-1.939.292-1.939a12.418,12.418,0,0,1,1.749-1.293q1.458-1.293-.583-4.849-2.041-3.879-2.624-4.2t-2.624-1.293A3.106,3.106,0,0,1,155.272,195q-.583-2.263-.875-3.879-.583-1.939-2.915-8.728l-2.624-7.111v-.646l-.291-.323-.292-.323h0v-.323H147.4v.323h-.292v.323h-.292v.323h-.292v.646l-7.579,17.132q-7.579,17.132-8.162,19.071a5.972,5.972,0,0,1-2.624,3.232l-2.332,1.293q-.875.323-3.79,6.788a50.769,50.769,0,0,0-3.79,13.576,59.755,59.755,0,0,1-2.041,10.344,56.787,56.787,0,0,0-1.749,6.465q-.583,2.586-2.041,3.232-1.166.323-1.458,2.263a26.735,26.735,0,0,1-1.166,3.232,7.87,7.87,0,0,0-.583,3.232q.583,1.939,2.041,5.5a35.3,35.3,0,0,1,2.041,5.5v2.586q0,.323-1.749,1.293a3.906,3.906,0,0,1-3.5.323,9.533,9.533,0,0,1-3.5-1.939,6.035,6.035,0,0,1-2.624-3.556q-.875-2.586-1.749-4.849-.875-1.939-2.915-5.818T95.512,259a18.176,18.176,0,0,0,.292-3.232,7.871,7.871,0,0,0-.583-3.232,10.411,10.411,0,0,1-.583-3.556q0-1.939-.292-6.142l-.292-4.525h0l-.292.323-.292.323h-.583l-.292.323-.291.323-1.166.323a4.732,4.732,0,0,0-1.458,2.263,4.046,4.046,0,0,1-1.749,1.939l-1.749.97q-.292.323-1.458,1.939a8.747,8.747,0,0,0-1.458,4.2q-.292,2.263-.292,2.586v.323h-.292v.323H82.1l-.292.323-.292.323H80.062l-.292-.323h-.292v-.323q0-.323-.292-.323a9.35,9.35,0,0,0-1.166-2.263,30.361,30.361,0,0,1-1.458-5.5,29.637,29.637,0,0,1,.292-4.849,7.134,7.134,0,0,0,0-2.909,7.612,7.612,0,0,1-.875-2.263,12.2,12.2,0,0,1-.583-4.525q0-3.232.875-4.2.583-.97,3.79-.97,2.915,0,7-6.142a81.624,81.624,0,0,1,6.413-8.728,14.45,14.45,0,0,0,2.915-4.2q.583-1.616.875-2.263a.973.973,0,0,0,.292-.646q0-.646-2.332-8.728-1.749-8.081-3.5-10.667-1.749-2.263-1.749-9.7V165.586q.292-2.263.583-2.263t.583-2.263q0-2.263-2.624-9.374-2.915-6.788-4.664-8.4a8.627,8.627,0,0,1-3.207-3.879l-1.458-3.232a22.405,22.405,0,0,1-3.207-3.879q-2.332-3.232-2.624-3.232t-2.041-2.586q-2.041-1.939-3.79-7.758a26.608,26.608,0,0,1-2.041-8.4,36.337,36.337,0,0,0-1.749-5.5q-1.458-2.909-2.041-3.232t-.875-1.939q-.583-1.616-1.166-2.909a6.19,6.19,0,0,1-1.166-4.2,14,14,0,0,0-1.166-3.879,48.06,48.06,0,0,1-2.332-6.788q-1.749-5.818-1.458-6.465.292-.323-.875-4.525a17,17,0,0,0-1.749-6.142q-.583-1.939-4.956-7.435-4.373-5.172-3.79-5.5t.583-.646q0-.323-.875-1.293l-.583-.97H41v-.646h2.041v.323q.292,0,.292-.97v-.646L44.5,47.6q1.458.646,2.041.97a.811.811,0,0,0,.583.323h0l.292.323.292.323H48v.323h.292v-.323h.292v-.323l-.292-.323A3.123,3.123,0,0,1,48,47.6l-.583-.646v-.97H48l.292.323h.292l.292.323.292.323h0l.292.323.292.323,1.166,1.939a12.81,12.81,0,0,1,1.166,2.586v.323h.292v.323h.292l.292.323.292.323h1.166L54.7,51.8l.292-1.616h1.166v5.172q0,4.2-.583,5.172a28.928,28.928,0,0,0,1.458,5.5q1.749,4.525,2.624,4.849.583,0,1.458,1.939t3.207,7.435a47.325,47.325,0,0,0,3.207,6.142q.583,1.293,2.041.323a7.964,7.964,0,0,1,4.373-.97q2.915,0,3.79.646a1.569,1.569,0,0,1,1.166.323l.291.323h2.041l-.292-.646-.292-.323a5.774,5.774,0,0,0-.292-1.293,5.182,5.182,0,0,1,.292-2.909l1.166-1.293h2.041q2.041,0,2.624.97a3.5,3.5,0,0,1,.583,1.293q0,.323,1.166.97t1.749,4.525a47.43,47.43,0,0,0,1.749,7.111q1.166,3.232,5.539,7.758a35.072,35.072,0,0,0,11.66,6.465q7.288,1.939,9.62,1.939,2.624,0,3.207.646H123.5v-.323h.292v-.97h1.166v-.323h0v-1.293h0v-.323h-1.166q-1.458,0-1.749-.323t-1.458-.323q-.875,0-.875-3.879a22.706,22.706,0,0,1,1.166-7.111,37.189,37.189,0,0,1,2.332-6.142A10.683,10.683,0,0,1,127,88.007a12.777,12.777,0,0,1,4.956-.97,5.942,5.942,0,0,1,4.081,1.293,11.308,11.308,0,0,1,3.207,4.525,47.433,47.433,0,0,1,2.624,6.465q1.166,3.232.875,4.525-.291,1.616-.583,1.616v.323h-.292v.323h0l-.292.323-.292.323h0v.323h2.041v-.323h.292v-.323h.292v-.323h.292v-.323h0l.583-.646q0-.646.875-19.395.875-19.071,0-20.688a12.481,12.481,0,0,0-2.041-3.879,6.165,6.165,0,0,1-1.749-4.2q0-2.263,1.166-2.909a3.512,3.512,0,0,0,1.166-1.293,1.149,1.149,0,0,1,1.166-.646,1.623,1.623,0,0,1,1.166.646q.583.646,1.166.323l1.166-.646q.583-.323.583.646a2.023,2.023,0,0,0,.874.97.811.811,0,0,1,.583.323q0,.323.875.646t.875,1.939a10.861,10.861,0,0,1-.583,2.263,1.408,1.408,0,0,0-.292.97q.292.97.583.97.583.323.583,3.879t.292,6.465a28.183,28.183,0,0,0,1.749,6.465,35.034,35.034,0,0,0,2.624,6.142,7.592,7.592,0,0,0,2.332,2.263,6.179,6.179,0,0,0,2.041.646,3.138,3.138,0,0,0,2.332.646,10.916,10.916,0,0,1,2.624,1.293q1.166,1.293,2.332.646a6.184,6.184,0,0,1,2.332-.646,1.623,1.623,0,0,1,1.166.646,1.881,1.881,0,0,0,1.458.646,2.772,2.772,0,0,1,2.332-.323,3.832,3.832,0,0,1,2.041.97,1.229,1.229,0,0,0,1.458.323,1.881,1.881,0,0,0,1.458-.646l.583-.646.583-.323h.583V87.683a10.347,10.347,0,0,0-1.749-5.172,19.754,19.754,0,0,1-1.166-7.758q0-5.172.875-6.465a9.788,9.788,0,0,1,2.915-2.586,9.072,9.072,0,0,1,4.956-1.293,8.527,8.527,0,0,1,4.664,1.293,13.6,13.6,0,0,1,2.332,2.586,21.57,21.57,0,0,1,1.166,3.879v4.525a11.724,11.724,0,0,1-.292,2.586q-.291,1.293-.875,1.293t-.875,1.939a15.021,15.021,0,0,0-.291,2.263v.646l-.292.97v.646l1.458-.323a4.223,4.223,0,0,0,2.332-.97,19.076,19.076,0,0,1,2.915-1.616,33.353,33.353,0,0,1,3.5-1.293,3.7,3.7,0,0,0,2.041-1.616,33.158,33.158,0,0,1,2.624-2.586,12.453,12.453,0,0,1,2.624-1.616q.875,0,1.166-5.5.292-5.172.292-9.051a21.638,21.638,0,0,0-.583-5.818,6.155,6.155,0,0,1-.292-3.232,5.259,5.259,0,0,1,.875-2.586,3.35,3.35,0,0,0,.583-1.616,1.408,1.408,0,0,1,.292-.97l.292-.323h0V47.6h.291v-.323h.292V47.6h0l.583.646a.973.973,0,0,0,.292.646l.291.646h0v-.323h.292v-.323h.292l.291-.323h.292v-.646a1.044,1.044,0,0,0-.583-.97,5.062,5.062,0,0,1-.875-1.293q0-.323,1.458,0a6.79,6.79,0,0,1,1.749,1.293,8.542,8.542,0,0,1,.875,1.939,4.274,4.274,0,0,0,.875,1.939q.583.323,0,3.232a8.531,8.531,0,0,1-.583,3.879q0,.97.583,10.99,1.166,9.7,1.749,14.869.583,4.849,1.166,9.051,1.166,4.2,1.749,5.818.583,1.939,1.166,2.263t.875-2.909a27.037,27.037,0,0,1,.875-5.172q.583-2.263,1.166-5.818a22.907,22.907,0,0,1,1.458-5.5,8.953,8.953,0,0,1,2.624-2.909,10.336,10.336,0,0,1,4.081-.646,11.671,11.671,0,0,1,8.454,4.849q.875,1.293.875,4.849a25.229,25.229,0,0,0,2.041,9.051q2.041,4.849,3.207,7.111a11.418,11.418,0,0,0,2.332,2.909,5.866,5.866,0,0,1,1.749,2.586,4.822,4.822,0,0,0,2.332,2.586,7.109,7.109,0,0,1,2.332,2.586q.583,1.293,2.915,11.96,1.749,10.344,2.332,11.96a9.471,9.471,0,0,1,.583,3.232q0,1.616-2.915,8.728-2.624,7.435-3.5,7.758a1.735,1.735,0,0,0-.875,1.293q0,.323,1.166-.647.875-1.293,3.207-4.849a32.973,32.973,0,0,1,5.247-6.788,45.985,45.985,0,0,0,5.539-7.758l3.5-6.465a21.811,21.811,0,0,0,2.041-4.849q.875-3.556,1.458-3.879l.583-.646q0-.323.292-.323.583-.323,1.166-2.263.875-2.263,1.749-2.586t.875-3.556a14.3,14.3,0,0,1,1.458-5.172,10.416,10.416,0,0,1,2.332-3.232q1.457-.646,3.207-1.293a9.322,9.322,0,0,1,3.207-.646l2.915,1.293a7.419,7.419,0,0,1,2.915,2.909,20.215,20.215,0,0,0,1.458,2.586A2.783,2.783,0,0,1,304.525,112.9ZM113,234.437l-.292.646v.97h-.292v.323h-.292v.323h0l-.292.323v.323h-.583v-.323l.292-.323v-.97l.292-.646a16.364,16.364,0,0,0,.292-3.879q0-2.909-.292-6.788a12.5,12.5,0,0,1,.583-5.818,47.023,47.023,0,0,0,2.915-4.849q1.458-3.232,2.624-18.425t1.166-19.718q-.583-4.849-1.166-8.081t-1.166-8.081q-.583-5.172-1.166-6.142t-1.749-2.586q-1.166-1.616.292-4.525t2.915-6.142a13.379,13.379,0,0,0,1.458-4.849,24.791,24.791,0,0,0-3.207-5.172,16.458,16.458,0,0,0-4.373-4.525q-1.458-.97-3.5-2.263a21.071,21.071,0,0,1-4.081-4.525l-2.332-2.909-.583-.323a1.946,1.946,0,0,1-.583-1.293q0-.97,1.458-.646,1.458.646,9.328,3.879,7.871,3.556,8.454,5.172a3.83,3.83,0,0,0,2.041,1.939q1.458.323,4.373,6.465a58.855,58.855,0,0,1,3.5,8.4,13.385,13.385,0,0,0,1.166,3.556v4.525q0,3.556.583,4.2v4.525a22.406,22.406,0,0,1-.875,6.465,63.389,63.389,0,0,0-1.458,7.111q-.583,4.2-1.458,12.283a61.616,61.616,0,0,1-1.458,9.374l-1.749,4.849q-1.166,2.909-4.081,11.637-2.332,8.4-4.664,17.132Q113.294,233.79,113,234.437Zm144.006-88.892v.323h-1.166v-.323h-.291v-3.232q.292-1.616.583-4.2.291-1.939.583-1.616.583.323,0,2.263a6.61,6.61,0,0,1-.583,3.232,9.728,9.728,0,0,0,.292,1.939A4.216,4.216,0,0,0,257.009,145.544Z" transform="translate(-41 -45.5)"/>
</svg>
