<svg xmlns="http://www.w3.org/2000/svg" xmlns:xlink="http://www.w3.org/1999/xlink" viewBox="0 0 119.66 119.66"><defs><style>.cls-1{fill:url(#linear-gradient);}.cls-2{fill:#ccc;}.cls-3{fill:none;stroke:#fff;stroke-miterlimit:10;stroke-width:2px;}</style><linearGradient id="linear-gradient" x1="59.83" y1="-27.19" x2="59.83" y2="127.82" gradientUnits="userSpaceOnUse"><stop offset="0.18" stop-color="#999"/><stop offset="1" stop-color="#ccc"/></linearGradient></defs><title>Asset 6blankprofile</title><g id="Layer_2" data-name="Layer 2"><g id="Layer_2-2" data-name="Layer 2"><circle class="cls-1" cx="59.83" cy="59.83" r="59.83"/><path class="cls-2" d="M77.14,54.25C73.86,61.75,66.7,68,59.75,68c-8.48,0-14.64-6.2-17.92-13.7C22.74,64.22,25.15,89.24,25.15,89.24c0,3.43,2.7,3.92,5.87,3.92H88.44c3.18,0,5.89-.5,5.89-3.92C94.33,89.24,96.23,64.14,77.14,54.25Z"/><path class="cls-2" d="M59.75,64c9.56,0,17.16-13.69,17.16-25S69.17,18.49,59.6,18.49,42.29,27.66,42.29,39,50.19,64,59.75,64Z"/><circle class="cls-3" cx="59.83" cy="59.83" r="53.87"/></g></g></svg>