<svg xmlns="http://www.w3.org/2000/svg" xmlns:xlink="http://www.w3.org/1999/xlink" width="147.453" height="147.453" viewBox="0 0 147.453 147.453">
  <defs>
    <style>
      .cls-1 {
        opacity: 0.785;
        fill: url(#linear-gradient);
      }
    </style>
    <linearGradient id="linear-gradient" x2="0.896" y2="0.916" gradientUnits="objectBoundingBox">
      <stop offset="0" stop-color="#f6c611"/>
      <stop offset="1" stop-color="#026a35"/>
    </linearGradient>
  </defs>
  <path id="Union_14" data-name="Union 14" class="cls-1" d="M43.487,147.453a64.573,64.573,0,0,1-18.207-2.4,39.573,39.573,0,0,1-13.68-6.907,29.987,29.987,0,0,1-8.609-10.964A34.72,34.72,0,0,1,0,112.606,65.92,65.92,0,0,1,2.579,95.683a67.717,67.717,0,0,1,7.532-17.635H21.887A21.5,21.5,0,0,0,35.629,73.1a21.692,21.692,0,0,0,7.423-12.332H104.4a21.688,21.688,0,0,0,13.739,15.964,21.463,21.463,0,0,0,7.426,1.316h11.489a70.486,70.486,0,0,1,7.675,17.635,63.623,63.623,0,0,1,2.723,16.924,34.72,34.72,0,0,1-2.991,14.575,30,30,0,0,1-8.609,10.964,39.586,39.586,0,0,1-13.681,6.907,64.562,64.562,0,0,1-18.206,2.4ZM71.545,128.1c1.183.028,2.925.043,5.179.043V138.8h6.538V127.976a51,51,0,0,0,6.177-.637,25.278,25.278,0,0,0,5.16-1.465,14.031,14.031,0,0,0,4.118-2.484,11.772,11.772,0,0,0,2.739-3.779,16.124,16.124,0,0,0,1.379-5.308c.368-3.915-.274-6.971-1.909-9.086a12.8,12.8,0,0,0-7.43-4.372,10.017,10.017,0,0,0,4.553-4.353,11.844,11.844,0,0,0,1.009-6.6,10.878,10.878,0,0,0-1.55-4.86A9.769,9.769,0,0,0,94,81.717a19.307,19.307,0,0,0-4.8-1.911,37.935,37.935,0,0,0-5.944-.956v-10.7H76.722v10.4h-.06c-1.117,0-2.792.027-5.119.085V68.152H65v10.7c-.941.029-2.326.043-4.118.043l-9-.043v6.964H56.6c2.141,0,3.413.971,3.779,2.886v12.186a4.313,4.313,0,0,1,.68.043h-.68V118a2.276,2.276,0,0,1-2.462,2.165H53.2l-1.317,7.771h8.492c.5,0,1.239.006,2.335.02,1.013.014,1.785.022,2.292.022V138.8h6.54V128.1h0Zm1.7-7.877c-.869-.014-1.354-.021-1.571-.021V105.854h.025c.252,0,.94-.014,1.991-.041,1.091-.029,2.012-.042,2.739-.042.709,0,1.695.042,2.93.128a24.887,24.887,0,0,1,3.142.381,20.667,20.667,0,0,1,2.781.786,8.089,8.089,0,0,1,2.442,1.3,6.375,6.375,0,0,1,1.571,1.953,6.062,6.062,0,0,1,.234,4.883,6.069,6.069,0,0,1-1.039,1.7,5.934,5.934,0,0,1-1.678,1.273,14.486,14.486,0,0,1-2.017.892,16.376,16.376,0,0,1-2.356.595c-.91.167-1.724.289-2.421.361s-1.5.125-2.484.17-1.722.063-2.25.063C74.785,120.247,74.137,120.24,73.24,120.226Zm-.105-20.889c-.832-.014-1.325-.022-1.465-.022V86.28h.041c.215,0,.735-.007,1.636-.021,1.03-.016,1.738-.03,2.293-.042l.279,0c.573,0,1.308.036,2.184.109a23.343,23.343,0,0,1,2.611.339,14.588,14.588,0,0,1,2.335.7,6.327,6.327,0,0,1,2.038,1.188,5.927,5.927,0,0,1,1.3,1.784,5.6,5.6,0,0,1,.531,2.483,5.94,5.94,0,0,1-.382,2.166,4.1,4.1,0,0,1-1.146,1.634,11.663,11.663,0,0,1-1.572,1.147,7.232,7.232,0,0,1-2.058.786c-.831.2-1.566.354-2.186.467a18,18,0,0,1-2.335.233c-.963.043-1.658.071-2.123.086-.239.006-.527.01-.855.01S73.551,99.343,73.135,99.337Zm52.43-29.93a12.96,12.96,0,0,1-12.96-12.959v-4.32H34.847v4.32a12.96,12.96,0,0,1-12.96,12.959H17.568V34.559H52.631a31.261,31.261,0,0,1-9.144-21.6A12.96,12.96,0,1,1,56.548,25.909a21.383,21.383,0,0,0,34.357,0A12.955,12.955,0,1,1,103.966,12.96a31.277,31.277,0,0,1-9.144,21.6h35.063V69.406Z"/>
</svg>
