<svg xmlns="http://www.w3.org/2000/svg" xmlns:xlink="http://www.w3.org/1999/xlink" width="112" height="110" viewBox="0 0 112 110">
  <defs>
    <style>
      .cls-1 {
        fill: url(#linear-gradient);
      }
    </style>
    <linearGradient id="linear-gradient" x2="1.05" y2="1.041" gradientUnits="objectBoundingBox">
      <stop offset="0" stop-color="#fdb400"/>
      <stop offset="1" stop-color="#037639"/>
    </linearGradient>
  </defs>
  <path id="Subtraction_10" data-name="Subtraction 10" class="cls-1" d="M102,110H10A10.011,10.011,0,0,1,0,100V10A10.011,10.011,0,0,1,10,0h92a10.011,10.011,0,0,1,10,10v90A10.011,10.011,0,0,1,102,110ZM9.15,5.913A2.152,2.152,0,0,0,7,8.062v93.787A2.153,2.153,0,0,0,9.15,104h81.7a2.134,2.134,0,0,0,1.519-.629l12.9-12.9a2.136,2.136,0,0,0,.63-1.52V8.062a2.152,2.152,0,0,0-2.15-2.149ZM88.7,99.7H11.3V10.212h90.3V86.8H90.851a2.153,2.153,0,0,0-2.15,2.15V99.7ZM15.6,78.2V95.4H71.5V78.2ZM55.307,18.91c-8,0-14.4,6.559-15.224,15.6a16.036,16.036,0,0,0,.478,5.926,25.427,25.427,0,0,0,7.789,13l19.6,17.786L87.884,53.431a25.419,25.419,0,0,0,7.789-13,16.15,16.15,0,0,0,.48-5.926,19.7,19.7,0,0,0-1.6-6.25,16.849,16.849,0,0,0-3.318-4.937,14.7,14.7,0,0,0-4.667-3.243,14.048,14.048,0,0,0-5.64-1.166,14.813,14.813,0,0,0-3.89.52,14.979,14.979,0,0,0-3.563,1.49,15.488,15.488,0,0,0-5.513,5.46,15.923,15.923,0,0,0-2.389-3.134,14.78,14.78,0,0,0-2.993-2.35,14.191,14.191,0,0,0-7.274-1.988ZM17.75,65.3v4.3h12.9V65.3Zm0-8.6V61h12.9V56.7Zm0-8.6v4.3h12.9V48.1Zm8.6-30.5a10.75,10.75,0,1,0,7.6,3.149A10.679,10.679,0,0,0,26.35,17.6ZM93,96.66V91.1H98.56L93,96.658ZM67.2,91.1H19.9V82.5H67.2v8.6Zm-1-30.922H63.236V55.268c-.281,0-.65,0-1.039-.01-.5-.006-.833-.009-1.059-.009H57.289l.6-3.523h2.136a1.032,1.032,0,0,0,1.117-.981V43.007h.308a1.978,1.978,0,0,0-.308-.019V37.464a1.547,1.547,0,0,0-.554-.982,1.876,1.876,0,0,0-1.16-.328H57.289V33l4.081.019c.81,0,1.438-.006,1.867-.019V28.148H66.2V32.9c1.107-.027,1.848-.039,2.331-.039h.017V28.148h2.964V33a17.228,17.228,0,0,1,2.695.433,8.8,8.8,0,0,1,2.175.867,4.431,4.431,0,0,1,1.589,1.5,4.936,4.936,0,0,1,.7,2.2,5.375,5.375,0,0,1-.457,2.992,4.547,4.547,0,0,1-2.065,1.974,7.138,7.138,0,0,1,1.968.765,4.888,4.888,0,0,1,1.4,1.217,4.271,4.271,0,0,1,.774,1.752,7.988,7.988,0,0,1,.092,2.367,7.33,7.33,0,0,1-.625,2.407,5.333,5.333,0,0,1-1.242,1.713,6.345,6.345,0,0,1-1.867,1.126,11.409,11.409,0,0,1-2.339.664,23.145,23.145,0,0,1-2.8.289v4.908H68.549V55.346c-1.082,0-1.829-.007-2.348-.02v4.851Zm.058-14.938v6.506c.105,0,.358,0,.712.01.449.007.717.01.924.01.232,0,.556-.009,1.02-.029.437-.02.815-.046,1.126-.077s.684-.088,1.1-.164a7.425,7.425,0,0,0,1.068-.269,6.581,6.581,0,0,0,.913-.4,2.677,2.677,0,0,0,.761-.577,2.748,2.748,0,0,0,.471-.77,2.741,2.741,0,0,0-.106-2.213,2.9,2.9,0,0,0-.711-.886,3.667,3.667,0,0,0-1.108-.587,9.317,9.317,0,0,0-1.26-.356,11.375,11.375,0,0,0-1.425-.173c-.549-.038-1-.058-1.328-.058s-.753.006-1.241.019c-.459.012-.79.019-.907.019Zm.019-2.964h.061l.585.01c.214,0,.375,0,.508,0s.267,0,.388,0c.192-.006.471-.017.962-.039a8.283,8.283,0,0,0,1.058-.106c.27-.049.594-.118.991-.212a3.307,3.307,0,0,0,.934-.356,5.248,5.248,0,0,0,.712-.519,1.858,1.858,0,0,0,.519-.742,2.685,2.685,0,0,0,.174-.982,2.531,2.531,0,0,0-.241-1.126,2.676,2.676,0,0,0-.587-.808,2.88,2.88,0,0,0-.923-.539,6.678,6.678,0,0,0-1.059-.318,10.71,10.71,0,0,0-1.183-.154c-.4-.033-.736-.049-.992-.049-.035,0-.081,0-.125,0-.249.005-.571.012-1.039.019-.421.007-.652.01-.748.01h-.013v5.909ZM26.35,34.8A6.45,6.45,0,1,1,32.8,28.35,6.457,6.457,0,0,1,26.35,34.8Z"/>
</svg>
