<svg xmlns="http://www.w3.org/2000/svg" xmlns:xlink="http://www.w3.org/1999/xlink" width="200.732" height="200.657" viewBox="0 0 200.732 200.657">
  <defs>
    <style>
      .cls-1 {
        fill: url(#linear-gradient);
      }
    </style>
    <linearGradient id="linear-gradient" x1="0.604" y1="0.082" x2="0.055" y2="1.019" gradientUnits="objectBoundingBox">
      <stop offset="0" stop-color="#f5b201"/>
      <stop offset="1" stop-color="#1a7b33"/>
    </linearGradient>
  </defs>
  <path id="Subtraction_6" data-name="Subtraction 6" class="cls-1" d="M171.442,200.657H29.289a29.691,29.691,0,0,1-7.766-1.021,28.687,28.687,0,0,1-6.863-2.859A29.552,29.552,0,0,1,.053,173.144a28.675,28.675,0,0,1,.513-7.417,29.69,29.69,0,0,1,2.559-7.4L74.2,16.17A29.86,29.86,0,0,1,79.1,9.1,28.44,28.44,0,0,1,85.41,4.043a29.685,29.685,0,0,1,29.911,0A28.45,28.45,0,0,1,121.628,9.1a29.835,29.835,0,0,1,4.9,7.074l71.076,142.154a29.677,29.677,0,0,1,2.56,7.4,28.676,28.676,0,0,1,.513,7.417,29.555,29.555,0,0,1-14.606,23.634,28.693,28.693,0,0,1-6.863,2.859A29.7,29.7,0,0,1,171.442,200.657ZM100.366,7.872A20.993,20.993,0,0,0,81.244,19.69L10.166,161.844a21.381,21.381,0,0,0,19.123,30.941H171.443a21.38,21.38,0,0,0,19.123-30.941L119.489,19.69A20.994,20.994,0,0,0,100.366,7.872Zm71.077,177.041H29.289a13.508,13.508,0,0,1-12.082-19.549L88.284,23.211a13.507,13.507,0,0,1,24.163,0l71.076,142.154a13.506,13.506,0,0,1-12.08,19.549Zm-70.515-34.552a13.255,13.255,0,0,0-4.425.719,11.635,11.635,0,0,0-3.707,2.154,9.811,9.811,0,0,0-2.51,3.177,8.69,8.69,0,0,0-.837,3.794,8.374,8.374,0,0,0,.837,3.691,10.338,10.338,0,0,0,2.51,3.2,11.553,11.553,0,0,0,3.707,2.215,12.932,12.932,0,0,0,4.425.738,10.393,10.393,0,0,0,3.926-.738,10.587,10.587,0,0,0,3.355-2.215,10.275,10.275,0,0,0,2.3-3.2,8.993,8.993,0,0,0,.769-3.691,9.338,9.338,0,0,0-.769-3.794,9.746,9.746,0,0,0-2.3-3.177,10.3,10.3,0,0,0-7.281-2.872Zm-.2-95.257a13.931,13.931,0,0,0-4.1.569,9.846,9.846,0,0,0-3.263,1.705,7.231,7.231,0,0,0-2.133,2.75,9.144,9.144,0,0,0-.711,3.7c0,5.719.154,9.444.461,16.865v.009c.163,3.947.366,8.859.613,15.669.188,5.2.349,9.378.49,13.063.389,10.13.584,15.215.584,21.649a6.049,6.049,0,0,0,.5,2.547,4.608,4.608,0,0,0,1.512,1.819c1.337.965,3.371,1.454,6.046,1.454a10.185,10.185,0,0,0,5.31-1.545,5.471,5.471,0,0,0,1.917-1.841,4.673,4.673,0,0,0,.639-2.435c0-6.493.083-11.651.247-21.928v0c.058-3.616.123-7.714.2-12.78.1-6.947.189-11.913.258-15.9v-.02c.126-7.3.189-10.964.189-16.62a11.369,11.369,0,0,0-.53-3.588,7.84,7.84,0,0,0-1.589-2.773,6.532,6.532,0,0,0-2.72-1.774A11.751,11.751,0,0,0,100.732,55.1Z" transform="translate(0 0)"/>
</svg>
